<svg xmlns="http://www.w3.org/2000/svg" xml:space="preserve" viewBox="0 0 128 128"><path fill="#FFF" d="M119 129c-31.688 0-63.375 0-95.243-.3-6.495-4.016-7.34-10.157-6.748-16.652-9.725.236-11.25-.32-11.933-8.083-.554-6.308.951-7.202 11.733-8.367v-9.195c-10.729-1.167-11.776-1.835-11.73-8.49.015-2.003.38-5.102 1.627-5.778 2.972-1.613 6.566-2.08 10.294-3.117v-8.733c-10.097-.723-11.792-1.553-11.909-6.537-.059-2.517-.026-6.287 1.467-7.32 2.82-1.953 6.726-2.336 10.442-3.45v-8.824c-9.922-.383-11.799-1.32-11.909-6.465-.054-2.516-.001-6.295 1.493-7.312 2.845-1.936 6.76-2.298 9.533-3.109 1.036-4.004 1.784-7.957 3.144-11.686C19.9 3.832 21.717 2.514 23 1c31.688 0 63.375 0 95.245.288 5.779 5.085 6.867 11.365 6.828 18.392-.17 30.483-.102 60.969-.05 91.453.011 6.214-.559 12.097-5.905 16.347-.27.215-.089 1-.118 1.52M41 21.502V125c23.214 0 45.857.102 68.499-.063 6.821-.05 10.494-4.298 10.496-11.19.011-31.997-.162-63.996.114-95.99.076-8.801-4.245-12.847-13.107-12.795-20.164.12-40.33.038-60.495.038H41zM36 41.5V5.205C25.8 4.447 19.734 9.056 22.397 17.73c6.645.595 8.449 2.155 8.603 7.441.198 6.787-1.214 8.291-8.8 9.3v9.306c6.581.49 8.54 2.065 8.8 6.93.37 6.962-.986 8.483-9 9.898v9.275c6.612.312 8.819 1.833 8.922 6.463.052 2.37.069 5.457-1.29 6.961-1.708 1.889-4.842 2.488-7.325 3.627v9.204c5.06-.986 8.005.937 8.664 5.747.944 6.893-.69 8.794-8.885 10.836-.247 9.76 4.231 13.562 13.914 11.618zM13.857 81c2.962 0 5.973.307 8.864-.147 1.221-.191 2.191-1.986 3.276-3.052-1.053-.933-2.024-2.531-3.173-2.672-3.08-.376-6.264-.36-9.352-.014-1.229.138-2.314 1.554-3.465 2.388.982 1.166 1.964 2.33 3.85 3.497m7.371-26c2.33.003 4.953.433 4.768-3.25-.17-3.371-2.703-2.705-4.768-2.738-2.831-.045-5.697-.25-8.48.122-1.015.136-2.687 1.887-2.551 2.622.222 1.2 1.542 2.879 2.646 3.095 2.407.47 4.97.148 8.385.149m4.769-28.563c-.52-1.088-.979-3.081-1.567-3.12-4.248-.279-8.527-.267-12.781-.051-.591.03-1.495 1.67-1.535 2.597-.041.948.852 2.796 1.252 2.773 4.872-.278 9.728-.83 14.63-2.199m-.042 76.235c-4.861-.48-9.718-1.03-14.59-1.307-.4-.023-1.386 1.892-1.236 2.758.179 1.036 1.233 2.673 2 2.728 3.932.277 7.909.308 11.831-.027.766-.065 1.363-2.124 1.995-4.152"/><path d="M22.531 1c-.814 1.514-2.632 2.832-3.27 4.582-1.36 3.73-2.108 7.682-3.144 11.686-2.773.811-6.688 1.173-9.533 3.109-1.494 1.017-1.547 4.796-1.493 7.312.11 5.145 1.987 6.082 11.909 6.465v8.824c-3.716 1.114-7.622 1.497-10.442 3.45-1.493 1.033-1.526 4.803-1.467 7.32.117 4.984 1.812 5.814 11.909 6.537v8.733c-3.728 1.037-7.322 1.504-10.294 3.117-1.247.676-1.612 3.775-1.626 5.778-.047 6.655 1 7.323 11.729 8.49v9.195c-10.782 1.165-12.287 2.06-11.733 8.367.683 7.763 2.208 8.319 11.933 8.083-.591 6.495.253 12.636 6.28 16.652-7.604.3-14.918.3-22.232.3L1.058 1zM119.487 129c-.458-.52-.64-1.305-.369-1.52 5.346-4.25 5.916-10.133 5.906-16.347-.053-30.484-.121-60.97.05-91.453.038-7.027-1.05-13.307-6.36-18.392C122.322 1 125.644 1 128.97 1q.002 64 .002 128z"/><path d="M41 21.003V5h5.507c20.165 0 40.33.082 60.495-.038 8.862-.052 13.183 3.994 13.107 12.794-.276 31.995-.103 63.994-.114 95.991-.002 6.892-3.675 11.14-10.496 11.19-22.642.165-45.285.063-68.499.063zM88.53 104c6.998 0 14 .117 20.99-.114 1.182-.04 2.316-1.574 3.472-2.417-1.01-.823-2.009-2.343-3.033-2.36a896 896 0 0 0-30.987.003c-1.001.017-1.976 1.58-2.963 2.426 1.012.82 1.954 2.215 3.05 2.348 2.792.339 5.651.114 9.471.114m12.927-78c-7.332 0-14.667-.112-21.991.115-1.177.036-2.306 1.582-3.457 2.431.848.815 1.686 2.326 2.547 2.339 10.662.161 21.328.16 31.99-.006.827-.013 1.63-1.586 2.445-2.434-.852-.812-1.631-2.209-2.569-2.324-2.626-.324-5.318-.118-8.965-.121M85.582 38c-1.833 0-3.739-.311-5.476.096-1.467.343-2.738 1.52-4.096 2.329 1.308.858 2.6 2.431 3.925 2.46 9.66.213 19.33.21 28.99.007 1.37-.03 2.71-1.515 4.065-2.327-1.31-.855-2.6-2.407-3.936-2.45-7.491-.24-14.994-.115-23.472-.115m10.913 49c-5.664 0-11.335-.141-16.987.114-1.2.054-2.336 1.556-3.501 2.39 1.168.832 2.323 2.363 3.507 2.386 9.992.192 19.99.192 29.983 0 1.18-.024 2.331-1.56 3.496-2.396-1.169-.831-2.29-2.285-3.515-2.379-3.975-.307-7.988-.115-12.983-.115M79.903 50l-3.893 2.573c1.347.809 2.68 2.29 4.043 2.319 9.606.203 19.22.202 28.826.003 1.384-.029 2.74-1.468 4.107-2.254-1.44-.88-2.86-2.486-4.322-2.523C99.391 49.886 90.11 50 79.904 50m15.594 30c4.665 0 9.34.168 13.987-.115 1.213-.074 2.341-1.551 3.508-2.384-1.166-.833-2.32-2.368-3.501-2.39a776 776 0 0 0-29.983 0c-1.182.022-2.335 1.556-3.502 2.389 1.166.833 2.297 2.32 3.506 2.385 4.983.273 9.99.115 15.985.115M48.021 35.114c7.235 8.59 7.405 8.761 15.072 1.116 2.755-2.748 7.492-4.58 6.756-10.335-6.467.603-9.492 5.952-13.71 9.24-5.018-4.13-5.436-4.164-8.118-.021M103.414 67c2.154 0 4.335.199 6.452-.084 1.083-.144 2.051-1.151 3.071-1.768-1.087-.716-2.166-2.038-3.263-2.054-11.074-.153-22.151-.093-33.64-.093l.21 3.999zm-41.395 4.47-5.313 6.004c-2.3-1.586-3.64-2.896-5.244-3.466-.924-.328-2.274.54-3.432.87 1.522 2.392 2.676 5.2 4.716 7.008 1.083.96 4.242.954 5.525.05 3.583-2.522 6.66-5.758 9.969-8.676 2.276-2.006 2.634-4.035-.153-6.646-1.82 1.43-3.681 2.894-6.068 4.857m3.995-16.992 5.396-7.264c-8.746-.738-10.672 6.457-16.181 9.134-.415-.62-.762-1.76-1.358-1.91-1.675-.42-3.453-.432-5.19-.606.4 1.507.35 3.413 1.275 4.455 4.997 5.634 5.205 5.541 10.958.32 1.438-1.304 3.053-2.412 5.1-4.13m-11.847 49.224c.814.096 1.958.59 2.39.229 4.495-3.741 8.961-7.53 13.174-11.578.506-.486-.535-2.583-.859-3.934-1.276.334-2.877.295-3.772 1.07-3.205 2.777-6.171 5.83-9.408 8.952-1.15-1.27-1.779-2.46-2.75-2.91-1.246-.579-2.767-.562-4.17-.802.211 1.404.021 3.07.727 4.151 1.064 1.629 2.755 2.849 4.668 4.822M36 42v82.336c-9.683 1.944-14.16-1.858-13.914-11.618 8.195-2.042 9.83-3.943 8.885-10.836-.66-4.81-3.603-6.733-8.664-5.747V86.93c2.483-1.14 5.617-1.738 7.325-3.627 1.359-1.504 1.342-4.59 1.29-6.96-.103-4.631-2.31-6.152-8.922-6.464v-9.275c8.014-1.415 9.37-2.936 9-9.897-.26-4.866-2.219-6.441-8.8-6.93V34.47c7.586-1.009 8.998-2.513 8.8-9.3-.154-5.286-1.958-6.846-8.603-7.44C19.734 9.055 25.801 4.446 36 5.204z"/><path d="M13.405 81c-1.434-1.166-2.416-2.331-3.398-3.497 1.15-.834 2.236-2.25 3.465-2.388 3.088-.346 6.271-.362 9.352.014 1.15.14 2.12 1.739 3.173 2.672-1.085 1.066-2.055 2.86-3.276 3.052-2.891.454-5.902.147-9.316.146M20.77 55c-2.957-.001-5.52.321-7.927-.15-1.104-.215-2.424-1.894-2.646-3.094-.136-.735 1.536-2.486 2.551-2.622 2.783-.372 5.649-.167 8.48-.122 2.065.033 4.598-.633 4.768 2.739.185 3.682-2.439 3.252-5.226 3.249M25.976 26.882c-4.882.925-9.738 1.476-14.61 1.754-.4.023-1.293-1.825-1.252-2.773.04-.926.944-2.567 1.535-2.597 4.254-.216 8.533-.228 12.781.051.588.039 1.048 2.032 1.546 3.565M25.975 103.116c-.653 1.584-1.25 3.643-2.016 3.708-3.922.335-7.899.304-11.83.027-.768-.055-1.822-1.692-2.001-2.728-.15-.866.836-2.781 1.236-2.758 4.872.277 9.729.827 14.611 1.751"/><path fill="#FFF" d="M88.036 104c-3.326 0-6.185.225-8.977-.114-1.096-.133-2.038-1.528-3.05-2.348.987-.846 1.962-2.409 2.963-2.426 10.327-.18 20.66-.18 30.987-.003 1.024.017 2.022 1.537 3.033 2.36-1.156.843-2.29 2.378-3.472 2.417-6.99.23-13.992.114-21.484.114M101.948 26c3.156.003 5.848-.203 8.474.12.938.116 1.717 1.513 2.569 2.325-.815.848-1.618 2.421-2.446 2.434-10.661.167-21.327.167-31.989.006-.86-.013-1.699-1.524-2.547-2.339 1.151-.849 2.28-2.395 3.457-2.431 7.324-.227 14.66-.115 22.482-.115M86.072 38c7.988 0 15.49-.124 22.982.116 1.336.042 2.625 1.594 3.936 2.45-1.354.81-2.695 2.297-4.066 2.326-9.66.204-19.329.206-28.989-.006-1.325-.03-2.617-1.603-3.925-2.461 1.358-.808 2.63-1.986 4.096-2.33 1.737-.406 3.643-.095 5.966-.095M96.994 87c4.496 0 8.51-.192 12.484.115 1.226.094 2.346 1.548 3.515 2.38-1.165.834-2.316 2.371-3.496 2.394-9.992.193-19.991.193-29.983 0-1.184-.022-2.339-1.553-3.507-2.384 1.165-.835 2.3-2.337 3.5-2.39C85.16 86.858 90.832 87 96.995 87M80.367 50c9.742 0 19.024-.114 28.297.118 1.461.037 2.883 1.643 4.322 2.523-1.368.786-2.723 2.225-4.107 2.254-9.606.199-19.22.2-28.826-.003-1.363-.029-2.696-1.51-4.043-2.32 1.298-.857 2.596-1.714 4.357-2.572M95 80c-5.498 0-10.504.158-15.487-.115-1.209-.066-2.34-1.552-3.506-2.385 1.167-.833 2.32-2.367 3.502-2.39 9.992-.192 19.991-.192 29.983 0 1.182.023 2.335 1.558 3.501 2.391-1.167.833-2.295 2.31-3.508 2.384-4.647.283-9.322.115-14.486.115M48.013 34.728c2.69-3.757 3.108-3.724 8.126.407 4.218-3.288 7.243-8.637 13.71-9.24.736 5.756-4.001 7.587-6.756 10.335-7.667 7.645-7.837 7.475-15.08-1.502M102.924 67h-26.68l-.21-4c11.489 0 22.566-.06 33.64.094 1.097.016 2.176 1.338 3.263 2.054-1.02.617-1.988 1.624-3.071 1.768-2.117.283-4.298.084-6.942.084M62.282 71.22c2.124-1.712 3.986-3.176 5.805-4.606 2.787 2.611 2.43 4.64.153 6.646-3.31 2.918-6.386 6.154-9.97 8.677-1.282.903-4.441.91-5.524-.051-2.04-1.809-3.194-4.616-4.716-7.008 1.158-.33 2.508-1.198 3.432-.87 1.603.57 2.943 1.88 5.244 3.466 1.64-1.854 3.477-3.929 5.576-6.253M65.757 54.738c-1.79 1.458-3.405 2.566-4.843 3.87-5.753 5.221-5.961 5.314-10.958-.32-.924-1.042-.875-2.948-1.276-4.455 1.738.174 3.516.187 5.191.607.596.15.943 1.289 1.358 1.909 5.51-2.677 7.435-9.872 16.181-9.134-2.233 3.006-3.814 5.135-5.653 7.523M53.922 103.412c-1.668-1.683-3.359-2.903-4.423-4.532-.706-1.08-.516-2.747-.727-4.15 1.403.239 2.924.222 4.17.8.971.451 1.6 1.642 2.75 2.911 3.237-3.122 6.203-6.175 9.408-8.952.895-.775 2.496-.736 3.772-1.07.324 1.35 1.365 3.448.859 3.934-4.213 4.048-8.679 7.837-13.173 11.578-.433.36-1.577-.133-2.636-.519"/></svg>