<svg xmlns="http://www.w3.org/2000/svg" xml:space="preserve" viewBox="0 0 128 128"><path d="M129 36v93H1V1h128zM3 47.51c0 15.319.066 30.64-.045 45.958-.03 4.039 1.59 5.609 5.608 5.577C23.216 98.931 37.87 99 52.523 99h14.058c1.224 9.774 4.87 17.412 12.766 22.935 6.542 4.576 13.695 5.65 21.346 5.063 8.376-.643 15.3-4.357 20.225-10.977 7.754-10.418 8.308-21.75 3.027-33.531-.696-1.552-.902-3.437-.907-5.169-.057-22.813-.093-45.626.012-68.439.02-4.172-1.412-5.955-5.762-5.937-27.476.109-54.952.002-82.426.166-1.99.012-4.435 1.138-5.871 2.555-5.522 5.448-10.302 11.707-16.14 16.76C5.288 28.969 1.19 36.396 3 47.509"/><path fill="#FFF" d="M3 47.012C1.19 36.396 5.29 28.97 12.85 22.426c5.839-5.053 10.619-11.312 16.14-16.76 1.437-1.417 3.882-2.543 5.872-2.555 27.474-.164 54.95-.057 82.426-.166 4.35-.018 5.782 1.765 5.762 5.937-.105 22.813-.07 45.626-.012 68.439.005 1.732.21 3.617.907 5.169 5.281 11.78 4.727 23.113-3.027 33.531-4.926 6.62-11.85 10.334-20.225 10.977-7.65.587-14.804-.487-21.346-5.063C71.45 116.412 67.805 108.774 66.58 99H52.524c-14.654 0-29.308-.07-43.96.045-4.019.032-5.638-1.538-5.609-5.577C3.066 78.149 3 62.829 3 47.012M113.98 78.47c-6.737-7.112-15.321-7.967-23.982-5.79-11.332 2.847-17.413 12.914-18.16 25.196-.78 12.847 14.312 28.888 32.472 23.338 18.787-5.74 24.114-29.883 9.67-42.744M82.5 7c-14.662 0-29.326-.06-43.986.098-1.397.015-3.669 1.112-4.02 2.196-1.82 5.634-3.147 11.426-4.8 17.747H115c0 14.147-.11 27.787.112 41.421.036 2.206 1.55 4.388 2.38 6.582l1.508-.517c0-20.812-.033-41.623.03-62.435.01-3.918-1.886-5.167-5.539-5.128C103.495 7.07 93.497 7 82.5 7M22.517 91h-11.68V34.468l-1.49-.34c-.782 2.78-2.202 5.552-2.241 8.342-.22 15.659-.04 31.322-.151 46.983-.029 4.033 1.569 5.624 5.599 5.592C27.214 94.93 41.877 95 56.539 95h10.108c1.198-3.745-.545-4.056-3.15-4.04-13.328.086-26.657.04-40.98.04M76.71 51.004c-.569.599-1.612 1.183-1.63 1.799-.14 4.614-.076 9.234-.076 13.977h15.772V51c-4.51 0-8.807 0-14.066.004M71 63.358V51.34H55.343V67c4.502 0 8.674.169 12.812-.122 1.003-.07 1.9-1.66 2.845-3.52M40.578 67h10.105V51.32H35.145V67zM15 56.578v10.105h15.68V51.145H15zM24.46 87h6.265V71.278H15.28V87zm80-40h6.265V31.278H95.28V47zm-19.037 0h5.313V31.267H75.27V47zM71 41.422V31.317H55.32v15.538H71zM39.606 87h11.066V71.331H35c0 4.321.212 8.326-.068 12.295-.217 3.064 1.087 3.774 4.674 3.374M15.06 46.28l15.625 1.012V31.099L29 30.555c-.667 1.903-1.52 3.763-1.968 5.716-1.645 7.165-1.595 7.176-7.156 6.373-1.327-3.093-2.506-5.84-3.686-8.586l-1.186.437c0 3.61 0 7.221.056 11.786M105.368 51H95.292v7.795l5.772-.859.294 1.146 5.787-6.357 3.713 3.525V51zm-65.8-12.959c4.562 1.592 4.877-3.737 8.143-4.765l3.13 2.939v-4.86H35.158v8.25c1.401-.739 2.637-1.391 4.41-1.564M62.504 71h-7.265v7.688l6.32-.477.485 1.077 5.322-6.364 3.322 3.14V71zm45.054-11.039-5.606 7.387-2.62-.209-4.04-6.085v5.216l15.304 2.636V56.588a903 903 0 0 1-3.038 3.373M16.523 26.986l-1.095 1.197 7.198 4.747 4.491-16.494-.836-.568c-3.087 3.532-6.173 7.064-9.758 11.118M36.34 41.893c-.114-.12-.212-.261-.346-.353-.111-.076-.264-.094-.398-.138l-.736 5.407h15.765v-9.501l-1.066-.673-8.992 9.655c-1.201-1.286-2.422-2.593-4.227-4.397m33.274 36.033-8.621 9.677L56.14 80.7l-.94.757V87c2.94 0 5.896.017 8.852-.004 5.167-.036 7.874-4.33 5.562-9.07"/><path d="M114.235 78.732c14.189 12.598 8.862 36.74-9.925 42.481-18.16 5.55-33.252-10.49-32.471-23.338.746-12.282 6.827-22.35 18.16-25.197 8.66-2.176 17.244-1.321 24.236 6.054m-18.596 4.33c-1.49 3.415.542 7.823-4.245 10.558-2.418 1.382.098 9.522 2.415 9.121 5.777-.998 8.384 3.18 11.543 6.066l3.188-2.783c-1.941-3.004-4.966-5.661-5.271-8.6-.546-5.263-6.213-8.55-4.792-14.232-.642-.062-1.284-.125-2.838-.13M83 7c10.497 0 20.495.07 30.491-.036 3.653-.04 5.55 1.21 5.538 5.128-.062 20.812-.03 41.623-.03 62.435l-1.507.517c-.83-2.194-2.344-4.376-2.38-6.582-.223-13.634-.112-27.274-.112-41.421H29.695c1.652-6.321 2.98-12.113 4.8-17.747.35-1.084 2.622-2.181 4.019-2.196C53.174 6.939 67.838 7 83 7m-29.5 4H35.29v11.715h79.42V11zM23.014 91c13.826 0 27.155.046 40.483-.04 2.605-.016 4.348.295 3.15 4.04H56.54c-14.662 0-29.324-.07-43.985.045-4.03.032-5.628-1.559-5.6-5.592.112-15.66-.068-31.324.152-46.983.039-2.79 1.459-5.562 2.242-8.342l1.49.34V91z"/><path d="M77.192 51.002C81.969 51 86.265 51 90.776 51v15.78H75.004c0-4.743-.064-9.363.075-13.977.019-.616 1.062-1.2 2.113-1.8M71 63.842c-.946 1.376-1.842 2.965-2.845 3.036-4.138.291-8.31.122-12.812.122V51.34H71zM40.092 67h-4.947V51.32h15.538V67zM15 56.092v-4.947h15.68v15.538H15zM23.972 87H15.28V71.278h15.445V87zM103.972 47H95.28V31.278h15.445V47zM84.94 47h-9.67V31.267h15.466V47zM71 41.908v4.947H55.32V31.317H71zM39.123 87c-3.104.4-4.408-.31-4.191-3.374.28-3.97.068-7.974.068-12.295h15.672V87zM15.032 45.804c-.028-4.088-.028-7.698-.028-11.309l1.186-.437 3.686 8.586c5.561.803 5.51.792 7.156-6.373.448-1.953 1.3-3.813 1.968-5.716l1.685.544v16.193c-5.289-.343-10.457-.677-15.653-1.488M105.842 51h5.016v5.25l-3.713-3.525-5.787 6.357-.294-1.146-5.772.859V51zM39.3 37.801c-1.505.413-2.74 1.065-4.142 1.805v-8.252h15.683v4.86l-3.13-2.938c-3.266 1.028-3.581 6.357-8.412 4.525M62.983 71h7.705v5.063l-3.322-3.14-5.322 6.365-.485-1.077-6.32.477V71zM107.806 59.69a1393 1393 0 0 0 2.79-3.102v12.318L95.293 66.27v-5.216l4.04 6.085 2.62.209c1.868-2.463 3.736-4.925 5.853-7.658"/><path d="M16.772 26.725c3.336-3.793 6.422-7.325 9.509-10.857l.836.568-4.49 16.494c-2.416-1.592-4.76-3.14-7.199-4.747.22-.24.657-.719 1.344-1.458M36.633 42.142c1.513 1.555 2.734 2.862 3.935 4.148l8.992-9.655 1.066.673v9.5H34.86l.736-5.406c.134.044.287.062.398.138.134.092.232.234.638.602M69.872 77.657c2.055 5.01-.652 9.303-5.819 9.34-2.956.02-5.912.003-8.853.003v-5.543l.941-.757 4.853 6.903c3.378-3.792 6-6.734 8.878-9.946"/><path fill="#FFF" d="M96.095 83.033c1.098.034 1.74.097 2.382.16-1.42 5.681 4.246 8.968 4.792 14.23.305 2.94 3.33 5.597 5.271 8.6l-3.188 2.784c-3.16-2.886-5.766-7.064-11.543-6.066-2.317.4-4.833-7.739-2.415-9.12 4.787-2.736 2.756-7.144 4.701-10.588M54 11h60.71v11.715H35.29V11zm-5.459 8h62.538l-.459-3.847H39.043L39.239 19z"/><path d="M48.048 19h-8.81l-.195-3.847h71.577L111.08 19z"/></svg>