<svg width="512" height="512" viewBox="0 0 512 512" fill="none" xmlns="http://www.w3.org/2000/svg">
<g clip-path="url(#clip0_498_99)">
<path d="M256 480C196.592 480 139.616 456.4 97.6081 414.392C55.5999 372.384 32 315.408 32 256C32 196.592 55.5999 139.616 97.6081 97.6081C139.616 55.5999 196.592 32 256 32C315.408 32 372.384 55.5999 414.392 97.6081C456.4 139.616 480 196.592 480 256C480 315.408 456.4 372.384 414.392 414.392C372.384 456.4 315.408 480 256 480ZM256 512C323.895 512 389.01 485.029 437.019 437.019C485.029 389.01 512 323.895 512 256C512 188.105 485.029 122.99 437.019 74.9807C389.01 26.9714 323.895 0 256 0C188.105 0 122.99 26.9714 74.9807 74.9807C26.9714 122.99 0 188.105 0 256C0 323.895 26.9714 389.01 74.9807 437.019C122.99 485.029 188.105 512 256 512Z" fill="#5694DC"/>
<path d="M285.76 210.816L212.48 220L209.856 232.16L224.256 234.816C233.664 237.056 235.52 240.448 233.472 249.824L209.856 360.8C203.648 389.504 213.216 403.008 235.712 403.008C253.152 403.008 273.408 394.944 282.592 383.872L285.408 370.56C279.008 376.192 269.664 378.432 263.456 378.432C254.656 378.432 251.456 372.256 253.728 361.376L285.76 210.816ZM288 144C288 152.487 284.629 160.626 278.627 166.627C272.626 172.629 264.487 176 256 176C247.513 176 239.374 172.629 233.373 166.627C227.371 160.626 224 152.487 224 144C224 135.513 227.371 127.374 233.373 121.373C239.374 115.371 247.513 112 256 112C264.487 112 272.626 115.371 278.627 121.373C284.629 127.374 288 135.513 288 144Z" fill="#5694DC"/>
</g>
<defs>
<clipPath id="clip0_498_99">
<rect width="512" height="512" fill="white"/>
</clipPath>
</defs>
</svg>
