<?xml version="1.0" encoding="UTF-8"?>
<!DOCTYPE svg PUBLIC "-//W3C//DTD SVG 1.1//EN" "http://www.w3.org/Graphics/SVG/1.1/DTD/svg11.dtd">
<svg xmlns="http://www.w3.org/2000/svg" version="1.1" width="128px" height="128px" style="shape-rendering:geometricPrecision; text-rendering:geometricPrecision; image-rendering:optimizeQuality; fill-rule:evenodd; clip-rule:evenodd" xmlns:xlink="http://www.w3.org/1999/xlink">
<g><path style="opacity:0.984" fill="#fefffe" d="M 17.5,29.5 C 48.1685,29.3334 78.8351,29.5 109.5,30C 112.167,33.6667 112.167,37.3333 109.5,41C 78.8333,41.6667 48.1667,41.6667 17.5,41C 14.8747,37.1681 14.8747,33.3348 17.5,29.5 Z"/></g>
<g><path style="opacity:0.984" fill="#fefffe" d="M 17.5,57.5 C 48.1685,57.3334 78.8351,57.5 109.5,58C 112.167,61.6667 112.167,65.3333 109.5,69C 78.8333,69.6667 48.1667,69.6667 17.5,69C 14.8747,65.1681 14.8747,61.3348 17.5,57.5 Z"/></g>
<g><path style="opacity:0.984" fill="#fefffe" d="M 17.5,85.5 C 48.1685,85.3334 78.8351,85.5 109.5,86C 112.167,89.6667 112.167,93.3333 109.5,97C 78.8333,97.6667 48.1667,97.6667 17.5,97C 14.8747,93.1681 14.8747,89.3348 17.5,85.5 Z"/></g>
</svg>
