<svg xmlns="http://www.w3.org/2000/svg" xml:space="preserve" viewBox="0 0 128 128"><path d="M102 1h26.962v128c-3.348 0-6.672 0-10.479-.469-.483-8.09-.483-15.71-.483-23.29h-4.102v19.534H33.217v-3.832h76.576V84.988l-3.96.406v30.604h-2.11q-37.985.001-75.97 0c-.833 0-1.75.196-2.471-.092-.548-.218-1.04-1.017-1.178-1.64-.07-.318.651-1.112 1.095-1.181 1.139-.18 2.323-.084 3.489-.084L97.162 113h4.692V69.3c-4.69-1.16-4.827 1.933-4.838 4.961-.04 11.117-.016 22.233-.016 33.542H16.36V5.354H97c0 18.177-.066 36 .09 53.821.017 2.062 1.26 4.113 1.936 6.17l2.936-.312c.081-8.417.026-16.844.036-25.265.01-8.798.002-17.596.002-26.754l4.102.323v66.63l3.968-.259v-57.67l3.93.201c0 24.694-.02 49.002.041 73.311.005 1.864.596 3.727.915 5.59l3.044-.17c0-27.926.001-55.853-.001-84.165h-8.185V8.822H102zM21 45.238c-.188 2.737-.001 4.911 3.782 4.817 7.487-.187 14.983-.13 22.472-.017 2.818.042 3.808-1.066 3.784-3.837q-.14-16.231 0-32.462c.024-2.822-1.076-3.82-3.844-3.777-7.323.112-14.652.165-21.972-.02-3.323-.083-4.325 1.171-4.277 4.382.15 9.986.055 19.976.055 30.914m69.116-35.236H56.242V23c11.198 0 22.159.027 33.119-.045 1.056-.007 2.407-.338 3.1-1.036 1.514-1.527.363-9.894-2.345-11.917M43.004 58.999c15.143 0 30.287.073 45.427-.112 1.513-.018 3.007-1.604 4.51-2.463-1.332-.808-2.656-2.304-3.996-2.319-14.974-.166-29.952-.142-44.927-.04-1.307.009-2.607.929-3.91 1.426.667 1.164 1.334 2.328 2.896 3.508M45.782 68c14.135 0 28.272.086 42.404-.118 1.611-.023 3.2-1.67 4.799-2.564-1.555-.773-3.101-2.198-4.664-2.216A1835 1835 0 0 0 44.92 63.1c-1.552.018-4.308 1.303-4.404 2.22-.3 2.879 2.19 2.844 5.266 2.679m36.654 9c1.995 0 4.055.308 5.966-.095 1.606-.338 3.039-1.503 4.548-2.302-1.494-.868-2.979-2.47-4.484-2.49-14.63-.189-29.264-.049-43.896-.174-2.511-.022-4.342.657-4.291 3.12.014.676 2.76 1.837 4.263 1.856 12.303.151 24.608.085 37.894.085m-34.702 4c-2.996.094-6.465-.891-7.912 3.87 1.41.398 2.705 1.076 4.003 1.082 15.155.075 30.31.085 45.465-.017 1.324-.008 2.643-.923 3.964-1.417l-.028-1.747c-2.025-.59-4.045-1.667-6.078-1.692C74.326 80.923 61.502 81 47.734 81m25.764 9c-9.322 0-18.647-.131-27.962.104-2.005.051-3.976 1.426-6.91 2.557 5.557 3.336 51.484 2.914 55.225-.421-2.491-.876-4.4-2.01-6.377-2.147-4.307-.3-8.65-.093-13.976-.093m14.534-49 5.397-2.544-.494-1.745h-36.8c-.774 3.147.617 4.395 4.143 4.337C69.22 40.902 78.168 41 88.032 41m-4.625 4h-27.18c-.716 3.73.427 5.107 3.849 5.052 9.328-.15 18.662.064 27.987-.154 1.771-.042 3.51-1.41 5.264-2.166l-.275-2.121A509 509 0 0 0 83.407 45m-19.83-13c8.12 0 16.243.105 24.359-.086 1.68-.04 3.335-1.182 5.001-1.816-1.6-.7-3.191-1.975-4.805-2.004-10.106-.185-20.217-.095-30.326-.081-.471 0-.943.146-1.762.281L56.29 32zM24.867 59c2.799-.002 5.628.233 8.379-.13 1.008-.133 1.83-1.683 2.737-2.586-.886-.76-1.718-2.08-2.67-2.173a46.2 46.2 0 0 0-8.87-.018c-1.188.113-2.278 1.256-3.413 1.93.979.992 1.957 1.984 3.837 2.977m2.717 4c-2.246.614-6.275-1.63-6.363 2.328-.1 4.497 4.172 2.019 6.506 2.66.306.085.68.093.98 0 2.46-.772 7.134 2.019 7.014-2.587-.114-4.405-4.727-1.597-8.137-2.401m4.549 9c-2.799.002-5.628-.233-8.379.13-1.008.133-1.83 1.683-2.737 2.586.886.76 1.718 2.08 2.67 2.173 2.935.288 5.934.298 8.87.018 1.188-.114 2.278-1.256 3.413-1.93-.979-.992-1.957-1.984-3.837-2.977m-1.804 14c.658 0 1.46.242 1.946-.047 1.308-.777 2.48-1.781 3.707-2.695-1.223-.752-2.387-1.999-3.682-2.156a34.5 34.5 0 0 0-8.364.016c-1.06.132-1.957 1.57-2.928 2.413.992.823 1.877 2.099 3 2.362 1.715.403 3.595.107 6.32.107m-3.613 9h8.901c.24-4.826.209-4.886-3.795-4.99-1.996-.053-4.084-.373-5.963.097-1.73.432-3.234 1.76-4.837 2.694 1.592.733 3.184 1.466 5.694 2.199"/><path fill="#FFF" d="M101.531 1C102 3.482 102 5.964 102 8.822h7.814v7.983H118c.002 28.312 0 56.239 0 84.165l-3.043.17c-.319-1.863-.91-3.726-.915-5.59-.062-24.309-.041-48.617-.041-73.31-1.342-.07-2.512-.13-3.93-.201v57.67l-3.968.258v-66.63L102 13.014c0 9.158.008 17.956-.002 26.754-.01 8.421.045 16.848-.036 25.265l-2.936.311c-.676-2.056-1.919-4.107-1.937-6.169C96.934 41.354 97 23.531 97 5.354H16.36v102.45H97c0-11.31-.024-22.426.016-33.543.01-3.028.148-6.121 4.838-4.96V113h-4.692l-68.474.001c-1.166 0-2.35-.096-3.49.084-.443.07-1.163.863-1.094 1.18.138.624.63 1.423 1.178 1.641.721.288 1.638.093 2.47.093h78.082V85.393l3.959-.406v35.955H33.217v3.832h80.681v-19.534H118v23.29c-29.688.469-59.375.469-89.531.015-.469-2.724-.469-4.993-.469-7.63h-8.071v-7.972H12V1z"/><path d="M11.517 1C12 38.189 12 75.378 12 112.944h7.929v7.972H28v7.63C19.025 129 10.05 129 1.038 129V1z"/><path fill="#FFF" d="M21 44.763c0-10.463.095-20.453-.055-30.44-.048-3.21.954-4.464 4.277-4.38 7.32.184 14.649.131 21.972.02 2.768-.043 3.868.954 3.844 3.776q-.14 16.231 0 32.462c.024 2.771-.966 3.88-3.784 3.837-7.49-.112-14.985-.17-22.472.017-3.783.094-3.97-2.08-3.782-5.292m5-9.297v9.257h19.722V15.279H26zM90.582 10.015c2.242 2.01 3.393 10.377 1.879 11.904-.693.698-2.044 1.03-3.1 1.036-10.96.072-21.92.045-33.12.045V10.002c11.333 0 22.604 0 34.341.013M77.474 15H60.222v3.835H87.96L87.735 15zM42.557 58.991c-1.115-1.172-1.782-2.336-2.448-3.5 1.302-.497 2.602-1.417 3.909-1.426 14.975-.102 29.953-.126 44.927.04 1.34.015 2.664 1.511 3.995 2.32-1.502.858-2.996 2.444-4.509 2.462-15.14.185-30.284.112-45.874.104M45.32 68c-2.614.165-5.104.2-4.804-2.68.096-.916 2.852-2.201 4.404-2.22a1835 1835 0 0 1 43.4.002c1.564.018 3.11 1.443 4.665 2.216-1.6.894-3.188 2.54-4.8 2.564-14.131.204-28.268.118-42.864.118M81.945 77c-12.795 0-25.1.066-37.403-.085-1.504-.019-4.25-1.18-4.263-1.856-.051-2.463 1.78-3.142 4.291-3.12 14.632.125 29.266-.015 43.896.175 1.505.02 2.99 1.621 4.484 2.489-1.51.799-2.942 1.964-4.548 2.302-1.91.403-3.971.095-6.457.095M48.206 81c13.296 0 26.12-.077 38.942.08 2.033.024 4.053 1.1 6.078 1.69l.028 1.748c-1.321.494-2.64 1.409-3.964 1.417-15.155.102-30.31.092-45.465.017-1.298-.006-2.593-.684-4.003-1.083 1.447-4.76 4.916-3.775 8.384-3.869M73.997 90c4.828 0 9.17-.207 13.477.093 1.977.137 3.886 1.27 6.377 2.147-3.74 3.335-49.668 3.757-55.226.42 2.935-1.13 4.906-2.505 6.91-2.556C54.852 89.87 64.177 90 73.998 90M87.573 41c-9.405 0-18.352-.098-27.295.048-3.526.058-4.917-1.19-4.144-4.337h36.8l.495 1.745c-1.799.848-3.598 1.696-5.856 2.544M83.889 45c3.375.204 6.27.407 9.163.61l.275 2.122c-1.753.756-3.493 2.124-5.264 2.166-9.325.218-18.66.003-27.987.154-3.422.055-4.565-1.322-3.85-5.052zM63.087 32h-6.798l-.245-3.706c.819-.135 1.29-.28 1.762-.281 10.11-.014 20.22-.104 30.326.08 1.614.03 3.204 1.306 4.805 2.005-1.666.634-3.32 1.776-5.001 1.816-8.116.191-16.24.086-24.85.086M24.417 59c-1.43-.993-2.408-1.985-3.387-2.977 1.135-.674 2.225-1.817 3.414-1.93 2.935-.28 5.934-.27 8.869.018.952.094 1.784 1.414 2.67 2.173-.907.903-1.729 2.453-2.737 2.586-2.75.363-5.58.128-8.83.13M28.042 63c2.952.804 7.565-2.004 7.68 2.401.119 4.606-4.555 1.815-7.015 2.586-.3.094-.674.086-.98.001-2.334-.641-6.606 1.837-6.506-2.66.088-3.958 4.117-1.714 6.821-2.328M32.583 72c1.43.993 2.408 1.985 3.387 2.977-1.135.674-2.225 1.816-3.414 1.93-2.935.28-5.934.27-8.869-.018-.952-.094-1.784-1.414-2.67-2.173.907-.903 1.729-2.453 2.737-2.586 2.75-.363 5.58-.128 8.83-.13M29.87 86c-2.267 0-4.147.296-5.862-.107-1.123-.263-2.008-1.54-3-2.362.971-.843 1.868-2.28 2.928-2.413a34.5 34.5 0 0 1 8.364-.016c1.295.157 2.459 1.404 3.682 2.156-1.226.914-2.4 1.918-3.707 2.695-.486.289-1.288.047-2.404.047M26.257 95c-2.052-.733-3.644-1.466-5.236-2.199 1.603-.933 3.108-2.262 4.837-2.694 1.879-.47 3.967-.15 5.963-.098 4.004.105 4.035.165 3.795 4.991z"/><path d="M26 34.972V15.279h19.722v29.444H26zM77.967 15h9.768l.225 3.835H60.222V15z"/></svg>