<svg width="512" height="512" viewBox="0 0 512 512" fill="none" xmlns="http://www.w3.org/2000/svg">
<path d="M176 176C180.243 176 184.313 177.686 187.314 180.686C190.314 183.687 192 187.757 192 192V384C192 388.243 190.314 392.313 187.314 395.314C184.313 398.314 180.243 400 176 400C171.757 400 167.687 398.314 164.686 395.314C161.686 392.313 160 388.243 160 384V192C160 187.757 161.686 183.687 164.686 180.686C167.687 177.686 171.757 176 176 176ZM256 176C260.243 176 264.313 177.686 267.314 180.686C270.314 183.687 272 187.757 272 192V384C272 388.243 270.314 392.313 267.314 395.314C264.313 398.314 260.243 400 256 400C251.757 400 247.687 398.314 244.686 395.314C241.686 392.313 240 388.243 240 384V192C240 187.757 241.686 183.687 244.686 180.686C247.687 177.686 251.757 176 256 176ZM352 192C352 187.757 350.314 183.687 347.314 180.686C344.313 177.686 340.243 176 336 176C331.757 176 327.687 177.686 324.686 180.686C321.686 183.687 320 187.757 320 192V384C320 388.243 321.686 392.313 324.686 395.314C327.687 398.314 331.757 400 336 400C340.243 400 344.313 398.314 347.314 395.314C350.314 392.313 352 388.243 352 384V192Z" fill="#5694DC"/>
<path d="M464 96C464 104.487 460.629 112.626 454.627 118.627C448.626 124.629 440.487 128 432 128H416V416C416 432.974 409.257 449.252 397.255 461.255C385.252 473.257 368.974 480 352 480H160C143.026 480 126.747 473.257 114.745 461.255C102.743 449.252 96 432.974 96 416V128H80C71.5131 128 63.3737 124.629 57.3726 118.627C51.3714 112.626 48 104.487 48 96V64C48 55.5131 51.3714 47.3737 57.3726 41.3726C63.3737 35.3714 71.5131 32 80 32H192C192 23.5131 195.371 15.3737 201.373 9.37258C207.374 3.37142 215.513 0 224 0L288 0C296.487 0 304.626 3.37142 310.627 9.37258C316.629 15.3737 320 23.5131 320 32H432C440.487 32 448.626 35.3714 454.627 41.3726C460.629 47.3737 464 55.5131 464 64V96ZM131.776 128L128 129.888V416C128 424.487 131.371 432.626 137.373 438.627C143.374 444.629 151.513 448 160 448H352C360.487 448 368.626 444.629 374.627 438.627C380.629 432.626 384 424.487 384 416V129.888L380.224 128H131.776ZM80 96H432V64H80V96Z" fill="#5694DC"/>
</svg>
